{"title":"Madagascar 3 - Firework","uid":8956720,"size":57186227,"categoryP":"video","categoryS":"music_videos","magnet":"?xt=urn:btih:413e915fbed5fb858703038a45e5cb51ab8b6b15&amp;dn=Madagascar+3+-+Firework&amp;tr=udp%3A%2F%2Ftracker.openbittorrent.com%3A80&amp;tr=udp%3A%2F%2Fopen.demonii.com%3A1337&amp;tr=udp%3A%2F%2Ftracker.coppersurfer.tk%3A6969&amp;tr=udp%3A%2F%2Fexodus.desync.com%3A6969","seeders":2,"leechers":0,"uploader":"ravi7","files":1,"time":1380014148,"description":"General\nComplete name                     : Madagascar 3 - Firework.mp4\nFormat                                   : MPEG-4\nFormat profile                        : Base Media / Version 2\nCodec ID                                : mp42\nFile size                                  : 54.5 MiB\nDuration                                 : 2mn 57s\nOverall bit rate mode             : Variable\nOverall bit rate                       : 2 572 Kbps\n\nVideo\nID                                              : 1\nFormat                                       : AVC\nFormat/Info                                : Advanced Video Codec\nFormat profile                             : &lt;a class=&quot;__cf_email__&quot; href=&quot;/cdn-cgi/l/email-protection&quot; data-cfemail=&quot;632b0a040b232f504d52&quot;&gt;[email&amp;#160;protected]&lt;/a&gt;&lt;script cf-hash='f9e31' type=&quot;text/javascript&quot;&gt;\n/* &lt;![CDATA[ */!function(){try{var t=&quot;currentScript&quot;in document?document.currentScript:function(){for(var t=document.getElementsByTagName(&quot;script&quot;),e=t.length;e--;)if(t[e].getAttribute(&quot;cf-hash&quot;))return t[e]}();if(t&amp;&amp;t.previousSibling){var e,r,n,i,c=t.previousSibling,a=c.getAttribute(&quot;data-cfemail&quot;);if(a){for(e=&quot;&quot;,r=parseInt(a.substr(0,2),16),n=2;a.length-n;n+=2)i=parseInt(a.substr(n,2),16)^r,e+=String.fromCharCode(i);e=document.createTextNode(e),c.parentNode.replaceChild(e,c)}}}catch(u){}}();/* ]]&gt; */&lt;/script&gt;\nFormat settings, CABAC              : Yes\nFormat settings, ReFrames          : 1 frame\nCodec ID                                      : avc1\nCodec ID/Info                               : Advanced Video Coding\nDuration                                       : 2mn 57s\nBit rate                                         : 2 378 Kbps\nMaximum bit rate                         : 10.5 Mbps\nWidth                                           : 1 280 pixels\nHeight                                          : 720 pixels\nDisplay aspect ratio                     : 16:9\nFrame rate mode                         : Constant\nFrame rate                                   : 23.976 fps\nColor space                                  : YUV\nChroma subsampling                   : 4:2:0\nBit depth                                      : 8 bits\nScan type                                : Progressive\nBits/(Pixel*Frame)                       : 0.108\nStream size                              : 50.4 MiB (92%)\n\nAudio\nID                                       : 2\nFormat                                   : AAC\nFormat/Info                            : Advanced Audio Codec\nFormat profile                         : LC\nCodec ID                                 : 40\nDuration                                 : 2mn 57s\nBit rate mode                          : Variable\nBit rate                                    : 192 Kbps\nMaximum bit rate                     : 202 Kbps\nChannel(s)                               : 2 channels\nChannel positions                    : Front: L R\nSampling rate                           : 44.1 KHz\nCompression mode                   : Lossy\nStream size                              : 4.07 MiB (7%)","torrent":{"xt":"urn:btih:413e915fbed5fb858703038a45e5cb51ab8b6b15","amp;dn":"Madagascar+3+-+Firework","amp;tr":["udp%3A%2F%2Ftracker.openbittorrent.com%3A80","udp%3A%2F%2Fopen.demonii.com%3A1337","udp%3A%2F%2Ftracker.coppersurfer.tk%3A6969","udp%3A%2F%2Fexodus.desync.com%3A6969"],"infoHash":"413e915fbed5fb858703038a45e5cb51ab8b6b15","infoHashBuffer":{"type":"Buffer","data":[65,62,145,95,190,213,251,133,135,3,3,138,69,229,203,81,171,139,107,21]},"announce":[],"urlList":[]}}